<svg xmlns="http://www.w3.org/2000/svg" viewBox="0 0 1200 1350"><rect width="1200" height="1350" fill="#fff3bd"/><text x="600" y="170" fill="#27304d" font-family="Arial" font-size="52" font-weight="900" text-anchor="middle">6 个普通小伙伴</text><g stroke="#27304d" stroke-width="14"><g fill="#ff8eb0"><circle cx="290" cy="420" r="130"/><circle cx="250" cy="390" r="16" fill="#27304d"/><circle cx="330" cy="390" r="16" fill="#27304d"/></g><g fill="#78ddf2"><circle cx="600" cy="420" r="130"/><circle cx="560" cy="390" r="16" fill="#27304d"/><circle cx="640" cy="390" r="16" fill="#27304d"/></g><g fill="#ffdb69"><circle cx="910" cy="420" r="130"/><circle cx="870" cy="390" r="16" fill="#27304d"/><circle cx="950" cy="390" r="16" fill="#27304d"/></g><g fill="#9be0a7"><circle cx="290" cy="800" r="130"/><circle cx="250" cy="770" r="16" fill="#27304d"/><circle cx="330" cy="770" r="16" fill="#27304d"/></g><g fill="#b7a9f4"><circle cx="600" cy="800" r="130"/><circle cx="560" cy="770" r="16" fill="#27304d"/><circle cx="640" cy="770" r="16" fill="#27304d"/></g><g fill="#ff9b69"><circle cx="910" cy="800" r="130"/><circle cx="870" cy="770" r="16" fill="#27304d"/><circle cx="950" cy="770" r="16" fill="#27304d"/></g></g><text x="600" y="1140" fill="#ff5f88" font-family="Arial" font-size="42" font-weight="900" text-anchor="middle">你会抽到谁?</text></svg>
