<svg xmlns="http://www.w3.org/2000/svg" viewBox="0 0 1200 1350"><rect width="1200" height="1350" fill="#b7a9f4"/><path d="m120 180 90 40 40 90-40 90-90 40-90-40-40-90 40-90z" fill="#ffdb69"/><text x="600" y="170" fill="#fff" font-family="Arial" font-size="56" font-weight="900" text-anchor="middle">神秘隐藏款</text><path d="M600 300c-155 0-250 135-230 300-90 85-70 260 50 320 40 120 320 120 360 0 120-60 140-235 50-320 20-165-75-300-230-300z" fill="#27304d"/><circle cx="530" cy="600" r="24" fill="#fff"/><circle cx="670" cy="600" r="24" fill="#fff"/><text x="600" y="1080" fill="#fff" font-family="Arial" font-size="42" font-weight="900" text-anchor="middle">出现概率约 1 : 72</text><text x="600" y="1150" fill="#ffdb69" font-family="Arial" font-size="28" font-weight="900" text-anchor="middle">嘘——暂时保密!</text></svg>
